<?xml version="1.0" ?><!-- Uploaded to: SVG Repo, www.svgrepo.com, Generator: SVG Repo Mixer Tools -->
<svg fill="#000000"  length="auto" viewBox="0 0 24 24" data-name="Layer 1" id="Layer_1" xmlns="http://www.w3.org/2000/svg"><title/>
<path d="M10.35,16.79a5,5,0,0,0,7.41,2.38l3.54,3.54,1.41-1.41-3.54-3.54a5,5,0,0,0,.49-1l2.35.39v-14L15,2,9,3,2,1.82v14L9,17Zm-.33-2h0v-10l4-.67V10.1A5,5,0,0,0,10,14.82ZM15,18a3,3,0,1,1,3-3A3,3,0,0,1,15,18Zm5-3.18h0a5,5,0,0,0-4-4.72V4.18l4,.67ZM4,4.18l4,.67v10l-4-.67Z"/>
</svg>